<mxfile host="Electron" modified="2024-04-27T11:56:20.330Z" agent="Mozilla/5.0 (Windows NT 10.0; Win64; x64) AppleWebKit/537.36 (KHTML, like Gecko) draw.io/22.1.11 Chrome/114.0.5735.289 Electron/25.9.8 Safari/537.36" etag="UjnXn5XmMNQGyhThIH03" version="22.1.11" type="device">
  <diagram name="Pagina-1" id="aMgr-Xb3KxcsmVH89gSf">
    <mxGraphModel dx="899" dy="664" grid="1" gridSize="5" guides="1" tooltips="1" connect="1" arrows="1" fold="1" page="1" pageScale="1" pageWidth="1169" pageHeight="827" math="0" shadow="0">
      <root>
        <mxCell id="0" />
        <mxCell id="1" parent="0" />
        <mxCell id="yQk6izIEa5HROMqP-3UN-114" style="edgeStyle=orthogonalEdgeStyle;rounded=0;orthogonalLoop=1;jettySize=auto;html=1;entryX=0.25;entryY=0;entryDx=0;entryDy=0;" parent="1" target="yQk6izIEa5HROMqP-3UN-28" edge="1">
          <mxGeometry relative="1" as="geometry">
            <Array as="points">
              <mxPoint x="515" y="85" />
              <mxPoint x="400" y="85" />
            </Array>
            <mxPoint x="515" y="70" as="sourcePoint" />
          </mxGeometry>
        </mxCell>
        <mxCell id="yQk6izIEa5HROMqP-3UN-115" style="edgeStyle=orthogonalEdgeStyle;rounded=0;orthogonalLoop=1;jettySize=auto;html=1;entryX=0.75;entryY=0;entryDx=0;entryDy=0;exitX=0.5;exitY=1;exitDx=0;exitDy=0;" parent="1" source="edqAift9cB1q6xz6t763-1" target="yQk6izIEa5HROMqP-3UN-80" edge="1">
          <mxGeometry relative="1" as="geometry">
            <Array as="points">
              <mxPoint x="515" y="85" />
              <mxPoint x="650" y="85" />
            </Array>
            <mxPoint x="515" y="70" as="sourcePoint" />
          </mxGeometry>
        </mxCell>
        <mxCell id="yQk6izIEa5HROMqP-3UN-112" style="edgeStyle=orthogonalEdgeStyle;rounded=0;orthogonalLoop=1;jettySize=auto;html=1;entryX=0.25;entryY=0;entryDx=0;entryDy=0;" parent="1" target="yQk6izIEa5HROMqP-3UN-80" edge="1">
          <mxGeometry relative="1" as="geometry">
            <Array as="points">
              <mxPoint x="515" y="125" />
              <mxPoint x="610" y="125" />
            </Array>
            <mxPoint x="515" y="106" as="sourcePoint" />
          </mxGeometry>
        </mxCell>
        <mxCell id="yQk6izIEa5HROMqP-3UN-113" style="edgeStyle=orthogonalEdgeStyle;rounded=0;orthogonalLoop=1;jettySize=auto;html=1;entryX=0.75;entryY=0;entryDx=0;entryDy=0;exitX=0.5;exitY=1;exitDx=0;exitDy=0;" parent="1" source="edqAift9cB1q6xz6t763-2" target="yQk6izIEa5HROMqP-3UN-28" edge="1">
          <mxGeometry relative="1" as="geometry">
            <Array as="points">
              <mxPoint x="515" y="125" />
              <mxPoint x="440" y="125" />
            </Array>
            <mxPoint x="515" y="106" as="sourcePoint" />
          </mxGeometry>
        </mxCell>
        <mxCell id="yQk6izIEa5HROMqP-3UN-61" value="" style="group" parent="1" vertex="1" connectable="0">
          <mxGeometry x="290" y="140" width="273" height="241" as="geometry" />
        </mxCell>
        <mxCell id="yQk6izIEa5HROMqP-3UN-18" style="edgeStyle=orthogonalEdgeStyle;rounded=0;orthogonalLoop=1;jettySize=auto;html=1;entryX=0.5;entryY=0;entryDx=0;entryDy=0;" parent="yQk6izIEa5HROMqP-3UN-61" source="yQk6izIEa5HROMqP-3UN-1" target="yQk6izIEa5HROMqP-3UN-13" edge="1">
          <mxGeometry relative="1" as="geometry" />
        </mxCell>
        <mxCell id="yQk6izIEa5HROMqP-3UN-1" value="" style="group;direction=east;rotation=0;movable=1;resizable=1;rotatable=1;deletable=1;editable=1;locked=0;connectable=1;points=[[0,0,0,0,0],[0,0.25,0,0,0],[0,0.5,0,0,0],[0,0.75,0,0,0],[0,1,0,0,0],[0.2,0,0,0,0],[0.25,1,0,0,0],[0.5,0,0,0,0],[0.5,1,0,0,0],[0.75,1,0,0,0],[0.8,0,0,0,0],[1,0,0,0,0],[1,0.25,0,0,0],[1,0.5,0,0,0],[1,0.75,0,0,0],[1,1,0,0,0]];" parent="yQk6izIEa5HROMqP-3UN-61" vertex="1" connectable="0">
          <mxGeometry x="35" y="65" width="115" height="35" as="geometry" />
        </mxCell>
        <mxCell id="yQk6izIEa5HROMqP-3UN-2" value="" style="endArrow=none;html=1;rounded=0;curved=1;" parent="yQk6izIEa5HROMqP-3UN-1" edge="1">
          <mxGeometry width="50" height="50" relative="1" as="geometry">
            <mxPoint as="sourcePoint" />
            <mxPoint x="47.91666666666667" as="targetPoint" />
          </mxGeometry>
        </mxCell>
        <mxCell id="yQk6izIEa5HROMqP-3UN-3" value="" style="endArrow=none;html=1;rounded=0;curved=1;" parent="yQk6izIEa5HROMqP-3UN-1" edge="1">
          <mxGeometry width="50" height="50" relative="1" as="geometry">
            <mxPoint x="47.91666666666667" as="sourcePoint" />
            <mxPoint x="57.5" y="17.499999999999986" as="targetPoint" />
          </mxGeometry>
        </mxCell>
        <mxCell id="yQk6izIEa5HROMqP-3UN-4" value="" style="endArrow=none;html=1;rounded=0;curved=1;" parent="yQk6izIEa5HROMqP-3UN-1" edge="1">
          <mxGeometry width="50" height="50" relative="1" as="geometry">
            <mxPoint x="57.5" y="17.499999999999986" as="sourcePoint" />
            <mxPoint x="67.08333333333334" as="targetPoint" />
          </mxGeometry>
        </mxCell>
        <mxCell id="yQk6izIEa5HROMqP-3UN-5" value="" style="endArrow=none;html=1;rounded=0;curved=1;" parent="yQk6izIEa5HROMqP-3UN-1" edge="1">
          <mxGeometry width="50" height="50" relative="1" as="geometry">
            <mxPoint x="67.08333333333334" as="sourcePoint" />
            <mxPoint x="115" as="targetPoint" />
          </mxGeometry>
        </mxCell>
        <mxCell id="yQk6izIEa5HROMqP-3UN-6" value="" style="endArrow=none;html=1;rounded=0;curved=1;" parent="yQk6izIEa5HROMqP-3UN-1" edge="1">
          <mxGeometry width="50" height="50" relative="1" as="geometry">
            <mxPoint x="19.166666666666668" y="34.99999999999997" as="sourcePoint" />
            <mxPoint as="targetPoint" />
          </mxGeometry>
        </mxCell>
        <mxCell id="yQk6izIEa5HROMqP-3UN-7" value="" style="endArrow=none;html=1;rounded=0;curved=1;" parent="yQk6izIEa5HROMqP-3UN-1" edge="1">
          <mxGeometry width="50" height="50" relative="1" as="geometry">
            <mxPoint x="19.166666666666668" y="34.99999999999997" as="sourcePoint" />
            <mxPoint x="95.83333333333334" y="34.99999999999997" as="targetPoint" />
          </mxGeometry>
        </mxCell>
        <mxCell id="yQk6izIEa5HROMqP-3UN-8" value="" style="endArrow=none;html=1;rounded=0;" parent="yQk6izIEa5HROMqP-3UN-1" edge="1">
          <mxGeometry width="50" height="50" relative="1" as="geometry">
            <mxPoint x="115" as="sourcePoint" />
            <mxPoint x="95.83333333333334" y="34.99999999999997" as="targetPoint" />
            <Array as="points" />
          </mxGeometry>
        </mxCell>
        <mxCell id="yQk6izIEa5HROMqP-3UN-19" value="" style="group" parent="yQk6izIEa5HROMqP-3UN-61" vertex="1" connectable="0">
          <mxGeometry x="50" y="135" width="85" height="40" as="geometry" />
        </mxCell>
        <mxCell id="yQk6izIEa5HROMqP-3UN-102" style="edgeStyle=orthogonalEdgeStyle;rounded=0;orthogonalLoop=1;jettySize=auto;html=1;exitX=0;exitY=0.75;exitDx=0;exitDy=0;endArrow=none;endFill=0;" parent="yQk6izIEa5HROMqP-3UN-19" source="yQk6izIEa5HROMqP-3UN-13" edge="1">
          <mxGeometry relative="1" as="geometry">
            <mxPoint x="-15" y="30.190476190476147" as="targetPoint" />
          </mxGeometry>
        </mxCell>
        <mxCell id="yQk6izIEa5HROMqP-3UN-13" value="" style="rounded=0;whiteSpace=wrap;html=1;" parent="yQk6izIEa5HROMqP-3UN-19" vertex="1">
          <mxGeometry width="85" height="40" as="geometry" />
        </mxCell>
        <mxCell id="yQk6izIEa5HROMqP-3UN-14" value="" style="endArrow=none;html=1;rounded=0;curved=1;" parent="yQk6izIEa5HROMqP-3UN-19" edge="1">
          <mxGeometry width="50" height="50" relative="1" as="geometry">
            <mxPoint y="40" as="sourcePoint" />
            <mxPoint x="14.166666666666666" y="30" as="targetPoint" />
          </mxGeometry>
        </mxCell>
        <mxCell id="yQk6izIEa5HROMqP-3UN-15" value="" style="endArrow=none;html=1;rounded=0;curved=1;" parent="yQk6izIEa5HROMqP-3UN-19" edge="1">
          <mxGeometry width="50" height="50" relative="1" as="geometry">
            <mxPoint y="22" as="sourcePoint" />
            <mxPoint x="14.166666666666666" y="30" as="targetPoint" />
          </mxGeometry>
        </mxCell>
        <mxCell id="yQk6izIEa5HROMqP-3UN-20" style="edgeStyle=orthogonalEdgeStyle;rounded=0;orthogonalLoop=1;jettySize=auto;html=1;entryX=0.2;entryY=0;entryDx=0;entryDy=0;entryPerimeter=0;exitX=0.5;exitY=1;exitDx=0;exitDy=0;" parent="yQk6izIEa5HROMqP-3UN-61" source="yQk6izIEa5HROMqP-3UN-13" target="yQk6izIEa5HROMqP-3UN-1" edge="1">
          <mxGeometry relative="1" as="geometry">
            <mxPoint x="90.00000000000011" y="230" as="targetPoint" />
            <mxPoint x="90" y="180" as="sourcePoint" />
            <Array as="points">
              <mxPoint x="93" y="195" />
              <mxPoint y="195" />
              <mxPoint y="40" />
              <mxPoint x="58" y="40" />
            </Array>
          </mxGeometry>
        </mxCell>
        <mxCell id="yQk6izIEa5HROMqP-3UN-26" style="edgeStyle=orthogonalEdgeStyle;rounded=0;orthogonalLoop=1;jettySize=auto;html=1;entryX=0.8;entryY=0;entryDx=0;entryDy=0;entryPerimeter=0;exitX=0.5;exitY=1;exitDx=0;exitDy=0;" parent="yQk6izIEa5HROMqP-3UN-61" source="yQk6izIEa5HROMqP-3UN-28" target="yQk6izIEa5HROMqP-3UN-1" edge="1">
          <mxGeometry relative="1" as="geometry">
            <mxPoint x="125" as="sourcePoint" />
          </mxGeometry>
        </mxCell>
        <mxCell id="yQk6izIEa5HROMqP-3UN-28" value="&lt;font style=&quot;font-size: 20px;&quot;&gt;x&lt;/font&gt;" style="rounded=0;whiteSpace=wrap;html=1;rotation=0;" parent="yQk6izIEa5HROMqP-3UN-61" vertex="1">
          <mxGeometry x="90" width="80" height="30" as="geometry" />
        </mxCell>
        <mxCell id="yQk6izIEa5HROMqP-3UN-116" value="CLK / 2" style="text;html=1;align=center;verticalAlign=middle;resizable=0;points=[];autosize=1;strokeColor=none;fillColor=none;fontSize=9;" parent="yQk6izIEa5HROMqP-3UN-61" vertex="1">
          <mxGeometry x="223" y="216" width="50" height="25" as="geometry" />
        </mxCell>
        <mxCell id="yQk6izIEa5HROMqP-3UN-118" value="CLK / 2" style="text;html=1;align=center;verticalAlign=middle;resizable=0;points=[];autosize=1;strokeColor=none;fillColor=none;fontSize=9;" parent="yQk6izIEa5HROMqP-3UN-61" vertex="1">
          <mxGeometry x="5" y="142.5" width="50" height="25" as="geometry" />
        </mxCell>
        <mxCell id="yQk6izIEa5HROMqP-3UN-64" value="" style="group" parent="1" vertex="1" connectable="0">
          <mxGeometry x="500" y="139.99999999999994" width="170" height="195" as="geometry" />
        </mxCell>
        <mxCell id="yQk6izIEa5HROMqP-3UN-65" style="edgeStyle=orthogonalEdgeStyle;rounded=0;orthogonalLoop=1;jettySize=auto;html=1;entryX=0.5;entryY=0;entryDx=0;entryDy=0;" parent="yQk6izIEa5HROMqP-3UN-64" source="yQk6izIEa5HROMqP-3UN-66" target="yQk6izIEa5HROMqP-3UN-75" edge="1">
          <mxGeometry relative="1" as="geometry" />
        </mxCell>
        <mxCell id="yQk6izIEa5HROMqP-3UN-66" value="" style="group;direction=east;rotation=0;movable=1;resizable=1;rotatable=1;deletable=1;editable=1;locked=0;connectable=1;points=[[0,0,0,0,0],[0,0.25,0,0,0],[0,0.5,0,0,0],[0,0.75,0,0,0],[0,1,0,0,0],[0.2,0,0,0,0],[0.25,1,0,0,0],[0.5,0,0,0,0],[0.5,1,0,0,0],[0.75,1,0,0,0],[0.8,0,0,0,0],[1,0,0,0,0],[1,0.25,0,0,0],[1,0.5,0,0,0],[1,0.75,0,0,0],[1,1,0,0,0]];" parent="yQk6izIEa5HROMqP-3UN-64" vertex="1" connectable="0">
          <mxGeometry x="35" y="65" width="115" height="35" as="geometry" />
        </mxCell>
        <mxCell id="yQk6izIEa5HROMqP-3UN-67" value="" style="endArrow=none;html=1;rounded=0;curved=1;" parent="yQk6izIEa5HROMqP-3UN-66" edge="1">
          <mxGeometry width="50" height="50" relative="1" as="geometry">
            <mxPoint as="sourcePoint" />
            <mxPoint x="47.91666666666667" as="targetPoint" />
          </mxGeometry>
        </mxCell>
        <mxCell id="yQk6izIEa5HROMqP-3UN-68" value="" style="endArrow=none;html=1;rounded=0;curved=1;" parent="yQk6izIEa5HROMqP-3UN-66" edge="1">
          <mxGeometry width="50" height="50" relative="1" as="geometry">
            <mxPoint x="47.91666666666667" as="sourcePoint" />
            <mxPoint x="57.5" y="17.499999999999986" as="targetPoint" />
          </mxGeometry>
        </mxCell>
        <mxCell id="yQk6izIEa5HROMqP-3UN-69" value="" style="endArrow=none;html=1;rounded=0;curved=1;" parent="yQk6izIEa5HROMqP-3UN-66" edge="1">
          <mxGeometry width="50" height="50" relative="1" as="geometry">
            <mxPoint x="57.5" y="17.499999999999986" as="sourcePoint" />
            <mxPoint x="67.08333333333334" as="targetPoint" />
          </mxGeometry>
        </mxCell>
        <mxCell id="yQk6izIEa5HROMqP-3UN-70" value="" style="endArrow=none;html=1;rounded=0;curved=1;" parent="yQk6izIEa5HROMqP-3UN-66" edge="1">
          <mxGeometry width="50" height="50" relative="1" as="geometry">
            <mxPoint x="67.08333333333334" as="sourcePoint" />
            <mxPoint x="115" as="targetPoint" />
          </mxGeometry>
        </mxCell>
        <mxCell id="yQk6izIEa5HROMqP-3UN-71" value="" style="endArrow=none;html=1;rounded=0;curved=1;" parent="yQk6izIEa5HROMqP-3UN-66" edge="1">
          <mxGeometry width="50" height="50" relative="1" as="geometry">
            <mxPoint x="19.166666666666668" y="34.99999999999997" as="sourcePoint" />
            <mxPoint as="targetPoint" />
          </mxGeometry>
        </mxCell>
        <mxCell id="yQk6izIEa5HROMqP-3UN-72" value="" style="endArrow=none;html=1;rounded=0;curved=1;" parent="yQk6izIEa5HROMqP-3UN-66" edge="1">
          <mxGeometry width="50" height="50" relative="1" as="geometry">
            <mxPoint x="19.166666666666668" y="34.99999999999997" as="sourcePoint" />
            <mxPoint x="95.83333333333334" y="34.99999999999997" as="targetPoint" />
          </mxGeometry>
        </mxCell>
        <mxCell id="yQk6izIEa5HROMqP-3UN-73" value="" style="endArrow=none;html=1;rounded=0;" parent="yQk6izIEa5HROMqP-3UN-66" edge="1">
          <mxGeometry width="50" height="50" relative="1" as="geometry">
            <mxPoint x="115" as="sourcePoint" />
            <mxPoint x="95.83333333333334" y="34.99999999999997" as="targetPoint" />
            <Array as="points" />
          </mxGeometry>
        </mxCell>
        <mxCell id="yQk6izIEa5HROMqP-3UN-74" value="" style="group" parent="yQk6izIEa5HROMqP-3UN-64" vertex="1" connectable="0">
          <mxGeometry x="50" y="135" width="85" height="40" as="geometry" />
        </mxCell>
        <mxCell id="yQk6izIEa5HROMqP-3UN-75" value="" style="rounded=0;whiteSpace=wrap;html=1;" parent="yQk6izIEa5HROMqP-3UN-74" vertex="1">
          <mxGeometry width="85" height="40" as="geometry" />
        </mxCell>
        <mxCell id="yQk6izIEa5HROMqP-3UN-76" value="" style="endArrow=none;html=1;rounded=0;curved=1;" parent="yQk6izIEa5HROMqP-3UN-74" edge="1">
          <mxGeometry width="50" height="50" relative="1" as="geometry">
            <mxPoint y="40" as="sourcePoint" />
            <mxPoint x="14.166666666666666" y="30" as="targetPoint" />
          </mxGeometry>
        </mxCell>
        <mxCell id="yQk6izIEa5HROMqP-3UN-77" value="" style="endArrow=none;html=1;rounded=0;curved=1;" parent="yQk6izIEa5HROMqP-3UN-74" edge="1">
          <mxGeometry width="50" height="50" relative="1" as="geometry">
            <mxPoint y="22" as="sourcePoint" />
            <mxPoint x="14.166666666666666" y="30" as="targetPoint" />
          </mxGeometry>
        </mxCell>
        <mxCell id="yQk6izIEa5HROMqP-3UN-78" style="edgeStyle=orthogonalEdgeStyle;rounded=0;orthogonalLoop=1;jettySize=auto;html=1;entryX=0.2;entryY=0;entryDx=0;entryDy=0;entryPerimeter=0;exitX=0.5;exitY=1;exitDx=0;exitDy=0;" parent="yQk6izIEa5HROMqP-3UN-64" source="yQk6izIEa5HROMqP-3UN-75" target="yQk6izIEa5HROMqP-3UN-66" edge="1">
          <mxGeometry relative="1" as="geometry">
            <mxPoint x="90.00000000000011" y="230" as="targetPoint" />
            <mxPoint x="90" y="180" as="sourcePoint" />
            <Array as="points">
              <mxPoint x="93" y="195" />
              <mxPoint y="195" />
              <mxPoint y="40" />
              <mxPoint x="58" y="40" />
            </Array>
          </mxGeometry>
        </mxCell>
        <mxCell id="yQk6izIEa5HROMqP-3UN-79" style="edgeStyle=orthogonalEdgeStyle;rounded=0;orthogonalLoop=1;jettySize=auto;html=1;entryX=0.8;entryY=0;entryDx=0;entryDy=0;entryPerimeter=0;exitX=0.5;exitY=1;exitDx=0;exitDy=0;" parent="yQk6izIEa5HROMqP-3UN-64" source="yQk6izIEa5HROMqP-3UN-80" target="yQk6izIEa5HROMqP-3UN-66" edge="1">
          <mxGeometry relative="1" as="geometry">
            <mxPoint x="125" as="sourcePoint" />
          </mxGeometry>
        </mxCell>
        <mxCell id="yQk6izIEa5HROMqP-3UN-80" value="&lt;font style=&quot;font-size: 20px;&quot;&gt;x&lt;/font&gt;" style="rounded=0;whiteSpace=wrap;html=1;rotation=0;" parent="yQk6izIEa5HROMqP-3UN-64" vertex="1">
          <mxGeometry x="90" width="80" height="30" as="geometry" />
        </mxCell>
        <mxCell id="yQk6izIEa5HROMqP-3UN-108" style="edgeStyle=orthogonalEdgeStyle;rounded=0;orthogonalLoop=1;jettySize=auto;html=1;exitX=0;exitY=0.5;exitDx=0;exitDy=0;exitPerimeter=0;endArrow=none;endFill=0;" parent="yQk6izIEa5HROMqP-3UN-64" source="yQk6izIEa5HROMqP-3UN-107" edge="1">
          <mxGeometry relative="1" as="geometry">
            <mxPoint x="30" y="167.5977011494254" as="targetPoint" />
          </mxGeometry>
        </mxCell>
        <mxCell id="yQk6izIEa5HROMqP-3UN-107" value="" style="verticalLabelPosition=bottom;verticalAlign=top;html=1;shape=mxgraph.flowchart.on-page_reference;" parent="yQk6izIEa5HROMqP-3UN-64" vertex="1">
          <mxGeometry x="45" y="165.00000000000006" width="5" height="5" as="geometry" />
        </mxCell>
        <mxCell id="yQk6izIEa5HROMqP-3UN-117" value="CLK / 2" style="text;html=1;align=center;verticalAlign=middle;resizable=0;points=[];autosize=1;strokeColor=none;fillColor=none;fontSize=9;" parent="yQk6izIEa5HROMqP-3UN-64" vertex="1">
          <mxGeometry y="145.00000000000006" width="50" height="25" as="geometry" />
        </mxCell>
        <mxCell id="yQk6izIEa5HROMqP-3UN-99" style="edgeStyle=orthogonalEdgeStyle;rounded=0;orthogonalLoop=1;jettySize=auto;html=1;exitX=0;exitY=0.5;exitDx=0;exitDy=0;endArrow=none;endFill=0;" parent="1" source="yQk6izIEa5HROMqP-3UN-96" edge="1">
          <mxGeometry relative="1" as="geometry">
            <mxPoint x="520" y="371" as="targetPoint" />
          </mxGeometry>
        </mxCell>
        <mxCell id="yQk6izIEa5HROMqP-3UN-101" style="edgeStyle=orthogonalEdgeStyle;rounded=0;orthogonalLoop=1;jettySize=auto;html=1;exitX=0.5;exitY=0;exitDx=0;exitDy=0;" parent="1" source="yQk6izIEa5HROMqP-3UN-96" edge="1">
          <mxGeometry relative="1" as="geometry">
            <mxPoint x="450" y="405" as="targetPoint" />
          </mxGeometry>
        </mxCell>
        <mxCell id="yQk6izIEa5HROMqP-3UN-96" value="" style="shape=trapezoid;perimeter=trapezoidPerimeter;whiteSpace=wrap;html=1;fixedSize=1;rotation=-180;size=12.5;" parent="1" vertex="1">
          <mxGeometry x="400" y="360" width="100" height="22" as="geometry" />
        </mxCell>
        <mxCell id="yQk6izIEa5HROMqP-3UN-97" style="edgeStyle=orthogonalEdgeStyle;rounded=0;orthogonalLoop=1;jettySize=auto;html=1;entryX=0.25;entryY=1;entryDx=0;entryDy=0;" parent="1" source="yQk6izIEa5HROMqP-3UN-75" target="yQk6izIEa5HROMqP-3UN-96" edge="1">
          <mxGeometry relative="1" as="geometry">
            <Array as="points">
              <mxPoint x="593" y="335" />
              <mxPoint x="475" y="335" />
            </Array>
          </mxGeometry>
        </mxCell>
        <mxCell id="yQk6izIEa5HROMqP-3UN-98" style="edgeStyle=orthogonalEdgeStyle;rounded=0;orthogonalLoop=1;jettySize=auto;html=1;exitX=0.5;exitY=1;exitDx=0;exitDy=0;entryX=0.75;entryY=1;entryDx=0;entryDy=0;" parent="1" source="yQk6izIEa5HROMqP-3UN-13" target="yQk6izIEa5HROMqP-3UN-96" edge="1">
          <mxGeometry relative="1" as="geometry">
            <Array as="points">
              <mxPoint x="383" y="335" />
              <mxPoint x="425" y="335" />
            </Array>
          </mxGeometry>
        </mxCell>
        <mxCell id="4A71q6UhintkqL5cM5Lv-1" value="0" style="text;html=1;align=center;verticalAlign=middle;resizable=0;points=[];autosize=1;strokeColor=none;fillColor=none;" parent="1" vertex="1">
          <mxGeometry x="460" y="356" width="30" height="30" as="geometry" />
        </mxCell>
        <mxCell id="4A71q6UhintkqL5cM5Lv-2" value="1" style="text;html=1;align=center;verticalAlign=middle;resizable=0;points=[];autosize=1;strokeColor=none;fillColor=none;" parent="1" vertex="1">
          <mxGeometry x="410" y="356" width="30" height="30" as="geometry" />
        </mxCell>
        <mxCell id="4A71q6UhintkqL5cM5Lv-3" value="" style="group" parent="1" connectable="0" vertex="1">
          <mxGeometry x="785" y="160.00000000000003" width="160" height="20.26000000000002" as="geometry" />
        </mxCell>
        <mxCell id="4A71q6UhintkqL5cM5Lv-4" value="" style="endArrow=none;html=1;rounded=0;" parent="4A71q6UhintkqL5cM5Lv-3" edge="1">
          <mxGeometry width="50" height="50" relative="1" as="geometry">
            <mxPoint x="40" y="20.25999999999999" as="sourcePoint" />
            <mxPoint x="50" y="20.26000000000002" as="targetPoint" />
          </mxGeometry>
        </mxCell>
        <mxCell id="4A71q6UhintkqL5cM5Lv-5" value="" style="endArrow=none;html=1;rounded=0;endSize=3;endFill=0;" parent="4A71q6UhintkqL5cM5Lv-3" edge="1">
          <mxGeometry width="50" height="50" relative="1" as="geometry">
            <mxPoint x="50" y="20.26000000000002" as="sourcePoint" />
            <mxPoint x="60" y="0.2600000000000051" as="targetPoint" />
          </mxGeometry>
        </mxCell>
        <mxCell id="4A71q6UhintkqL5cM5Lv-6" value="" style="endArrow=none;html=1;rounded=0;" parent="4A71q6UhintkqL5cM5Lv-3" edge="1">
          <mxGeometry width="50" height="50" relative="1" as="geometry">
            <mxPoint x="70" y="0.2600000000000051" as="sourcePoint" />
            <mxPoint x="60" y="0.2600000000000051" as="targetPoint" />
          </mxGeometry>
        </mxCell>
        <mxCell id="4A71q6UhintkqL5cM5Lv-7" value="" style="endArrow=none;html=1;rounded=0;" parent="4A71q6UhintkqL5cM5Lv-3" edge="1">
          <mxGeometry width="50" height="50" relative="1" as="geometry">
            <mxPoint x="70" y="0.2600000000000051" as="sourcePoint" />
            <mxPoint x="80" y="20.26000000000002" as="targetPoint" />
            <Array as="points" />
          </mxGeometry>
        </mxCell>
        <mxCell id="4A71q6UhintkqL5cM5Lv-8" value="" style="endArrow=none;html=1;rounded=0;" parent="4A71q6UhintkqL5cM5Lv-3" edge="1">
          <mxGeometry width="50" height="50" relative="1" as="geometry">
            <mxPoint y="20.090000000000003" as="sourcePoint" />
            <mxPoint x="10" y="20.090000000000003" as="targetPoint" />
          </mxGeometry>
        </mxCell>
        <mxCell id="4A71q6UhintkqL5cM5Lv-9" value="" style="endArrow=none;html=1;rounded=0;endSize=3;endFill=0;" parent="4A71q6UhintkqL5cM5Lv-3" edge="1">
          <mxGeometry width="50" height="50" relative="1" as="geometry">
            <mxPoint x="10" y="20.090000000000003" as="sourcePoint" />
            <mxPoint x="20" y="0.09000000000000341" as="targetPoint" />
          </mxGeometry>
        </mxCell>
        <mxCell id="4A71q6UhintkqL5cM5Lv-10" value="" style="endArrow=none;html=1;rounded=0;" parent="4A71q6UhintkqL5cM5Lv-3" edge="1">
          <mxGeometry width="50" height="50" relative="1" as="geometry">
            <mxPoint x="30" y="0.09000000000000341" as="sourcePoint" />
            <mxPoint x="20" y="0.09000000000000341" as="targetPoint" />
          </mxGeometry>
        </mxCell>
        <mxCell id="4A71q6UhintkqL5cM5Lv-11" value="" style="endArrow=none;html=1;rounded=0;" parent="4A71q6UhintkqL5cM5Lv-3" edge="1">
          <mxGeometry width="50" height="50" relative="1" as="geometry">
            <mxPoint x="30" y="0.09000000000000341" as="sourcePoint" />
            <mxPoint x="40" y="20.090000000000003" as="targetPoint" />
            <Array as="points" />
          </mxGeometry>
        </mxCell>
        <mxCell id="4A71q6UhintkqL5cM5Lv-16" value="" style="endArrow=none;html=1;rounded=0;" parent="4A71q6UhintkqL5cM5Lv-3" edge="1">
          <mxGeometry width="50" height="50" relative="1" as="geometry">
            <mxPoint x="80" y="20" as="sourcePoint" />
            <mxPoint x="90" y="20" as="targetPoint" />
          </mxGeometry>
        </mxCell>
        <mxCell id="4A71q6UhintkqL5cM5Lv-17" value="" style="endArrow=none;html=1;rounded=0;endSize=3;endFill=0;" parent="4A71q6UhintkqL5cM5Lv-3" edge="1">
          <mxGeometry width="50" height="50" relative="1" as="geometry">
            <mxPoint x="90" y="20" as="sourcePoint" />
            <mxPoint x="100" as="targetPoint" />
          </mxGeometry>
        </mxCell>
        <mxCell id="4A71q6UhintkqL5cM5Lv-18" value="" style="endArrow=none;html=1;rounded=0;" parent="4A71q6UhintkqL5cM5Lv-3" edge="1">
          <mxGeometry width="50" height="50" relative="1" as="geometry">
            <mxPoint x="110" as="sourcePoint" />
            <mxPoint x="100" as="targetPoint" />
          </mxGeometry>
        </mxCell>
        <mxCell id="4A71q6UhintkqL5cM5Lv-20" value="A" style="text;html=1;align=center;verticalAlign=middle;resizable=0;points=[];autosize=1;strokeColor=none;fillColor=none;" parent="1" vertex="1">
          <mxGeometry x="740" y="195" width="30" height="30" as="geometry" />
        </mxCell>
        <mxCell id="4A71q6UhintkqL5cM5Lv-21" value="B" style="text;html=1;align=center;verticalAlign=middle;resizable=0;points=[];autosize=1;strokeColor=none;fillColor=none;" parent="1" vertex="1">
          <mxGeometry x="740" y="235" width="30" height="30" as="geometry" />
        </mxCell>
        <mxCell id="4A71q6UhintkqL5cM5Lv-26" value="" style="endArrow=none;html=1;rounded=0;dashed=1;strokeWidth=0.5;" parent="1" edge="1">
          <mxGeometry width="50" height="50" relative="1" as="geometry">
            <mxPoint x="860" y="170" as="sourcePoint" />
            <mxPoint x="860" y="340" as="targetPoint" />
          </mxGeometry>
        </mxCell>
        <mxCell id="4A71q6UhintkqL5cM5Lv-27" value="" style="endArrow=none;html=1;rounded=0;dashed=1;strokeWidth=0.5;" parent="1" edge="1">
          <mxGeometry width="50" height="50" relative="1" as="geometry">
            <mxPoint x="880" y="170" as="sourcePoint" />
            <mxPoint x="880" y="340" as="targetPoint" />
          </mxGeometry>
        </mxCell>
        <mxCell id="4A71q6UhintkqL5cM5Lv-29" value="" style="endArrow=none;html=1;rounded=0;dashed=1;strokeWidth=0.5;" parent="1" edge="1">
          <mxGeometry width="50" height="50" relative="1" as="geometry">
            <mxPoint x="820" y="170" as="sourcePoint" />
            <mxPoint x="820" y="340" as="targetPoint" />
          </mxGeometry>
        </mxCell>
        <mxCell id="4A71q6UhintkqL5cM5Lv-30" value="" style="endArrow=none;html=1;rounded=0;dashed=1;strokeWidth=0.5;" parent="1" edge="1">
          <mxGeometry width="50" height="50" relative="1" as="geometry">
            <mxPoint x="840" y="170" as="sourcePoint" />
            <mxPoint x="840" y="340" as="targetPoint" />
          </mxGeometry>
        </mxCell>
        <mxCell id="4A71q6UhintkqL5cM5Lv-31" value="" style="endArrow=none;html=1;rounded=0;dashed=1;strokeWidth=0.5;" parent="1" edge="1">
          <mxGeometry width="50" height="50" relative="1" as="geometry">
            <mxPoint x="800" y="170" as="sourcePoint" />
            <mxPoint x="800" y="340" as="targetPoint" />
          </mxGeometry>
        </mxCell>
        <mxCell id="4A71q6UhintkqL5cM5Lv-39" value="S" style="text;html=1;align=center;verticalAlign=middle;resizable=0;points=[];autosize=1;strokeColor=none;fillColor=none;" parent="1" vertex="1">
          <mxGeometry x="740" y="275" width="30" height="30" as="geometry" />
        </mxCell>
        <mxCell id="4A71q6UhintkqL5cM5Lv-40" value="S" style="text;html=1;align=center;verticalAlign=middle;resizable=0;points=[];autosize=1;strokeColor=none;fillColor=none;" parent="1" vertex="1">
          <mxGeometry x="445" y="395" width="30" height="30" as="geometry" />
        </mxCell>
        <mxCell id="4A71q6UhintkqL5cM5Lv-71" value="&lt;font style=&quot;font-size: 10px;&quot;&gt;0&lt;/font&gt;" style="text;html=1;align=center;verticalAlign=middle;resizable=0;points=[];autosize=1;strokeColor=none;fillColor=none;" parent="1" vertex="1">
          <mxGeometry x="775" y="275" width="25" height="30" as="geometry" />
        </mxCell>
        <mxCell id="4A71q6UhintkqL5cM5Lv-72" value="" style="endArrow=none;html=1;rounded=0;" parent="1" edge="1">
          <mxGeometry width="50" height="50" relative="1" as="geometry">
            <mxPoint x="775" y="280" as="sourcePoint" />
            <mxPoint x="800" y="280" as="targetPoint" />
          </mxGeometry>
        </mxCell>
        <mxCell id="4A71q6UhintkqL5cM5Lv-73" value="" style="endArrow=none;html=1;rounded=0;" parent="1" edge="1">
          <mxGeometry width="50" height="50" relative="1" as="geometry">
            <mxPoint x="775" y="300" as="sourcePoint" />
            <mxPoint x="800" y="300" as="targetPoint" />
          </mxGeometry>
        </mxCell>
        <mxCell id="4A71q6UhintkqL5cM5Lv-77" value="" style="group" parent="1" connectable="0" vertex="1">
          <mxGeometry x="800" y="200" width="5" height="20" as="geometry" />
        </mxCell>
        <mxCell id="4A71q6UhintkqL5cM5Lv-78" value="" style="endArrow=none;html=1;rounded=0;" parent="4A71q6UhintkqL5cM5Lv-77" edge="1">
          <mxGeometry width="50" height="50" relative="1" as="geometry">
            <mxPoint as="sourcePoint" />
            <mxPoint x="5" y="19.99999999999997" as="targetPoint" />
            <Array as="points" />
          </mxGeometry>
        </mxCell>
        <mxCell id="4A71q6UhintkqL5cM5Lv-79" value="" style="endArrow=none;html=1;rounded=0;" parent="4A71q6UhintkqL5cM5Lv-77" edge="1">
          <mxGeometry width="50" height="50" relative="1" as="geometry">
            <mxPoint x="5" y="2.8421709430403966e-14" as="sourcePoint" />
            <mxPoint y="20" as="targetPoint" />
            <Array as="points" />
          </mxGeometry>
        </mxCell>
        <mxCell id="4A71q6UhintkqL5cM5Lv-94" value="" style="endArrow=none;html=1;rounded=0;" parent="1" edge="1">
          <mxGeometry width="50" height="50" relative="1" as="geometry">
            <mxPoint x="775" y="200" as="sourcePoint" />
            <mxPoint x="800" y="200" as="targetPoint" />
          </mxGeometry>
        </mxCell>
        <mxCell id="4A71q6UhintkqL5cM5Lv-95" value="" style="endArrow=none;html=1;rounded=0;" parent="1" edge="1">
          <mxGeometry width="50" height="50" relative="1" as="geometry">
            <mxPoint x="775" y="220" as="sourcePoint" />
            <mxPoint x="800" y="220" as="targetPoint" />
          </mxGeometry>
        </mxCell>
        <mxCell id="4A71q6UhintkqL5cM5Lv-108" value="" style="endArrow=none;html=1;rounded=0;" parent="1" edge="1">
          <mxGeometry width="50" height="50" relative="1" as="geometry">
            <mxPoint x="805" y="200" as="sourcePoint" />
            <mxPoint x="820" y="200" as="targetPoint" />
          </mxGeometry>
        </mxCell>
        <mxCell id="4A71q6UhintkqL5cM5Lv-109" value="" style="endArrow=none;html=1;rounded=0;" parent="1" edge="1">
          <mxGeometry width="50" height="50" relative="1" as="geometry">
            <mxPoint x="805" y="220" as="sourcePoint" />
            <mxPoint x="820" y="220" as="targetPoint" />
          </mxGeometry>
        </mxCell>
        <mxCell id="4A71q6UhintkqL5cM5Lv-111" value="&lt;div style=&quot;&quot;&gt;&lt;span style=&quot;font-size: 10px; background-color: initial;&quot;&gt;2&lt;/span&gt;&lt;/div&gt;" style="text;html=1;align=center;verticalAlign=top;resizable=0;points=[];autosize=1;strokeColor=none;fillColor=none;horizontal=1;" parent="1" vertex="1">
          <mxGeometry x="775" y="195" width="25" height="30" as="geometry" />
        </mxCell>
        <mxCell id="4A71q6UhintkqL5cM5Lv-112" value="" style="group" parent="1" connectable="0" vertex="1">
          <mxGeometry x="820" y="200" width="5" height="20" as="geometry" />
        </mxCell>
        <mxCell id="4A71q6UhintkqL5cM5Lv-113" value="" style="endArrow=none;html=1;rounded=0;" parent="4A71q6UhintkqL5cM5Lv-112" edge="1">
          <mxGeometry width="50" height="50" relative="1" as="geometry">
            <mxPoint as="sourcePoint" />
            <mxPoint x="5" y="19.99999999999997" as="targetPoint" />
            <Array as="points" />
          </mxGeometry>
        </mxCell>
        <mxCell id="4A71q6UhintkqL5cM5Lv-114" value="" style="endArrow=none;html=1;rounded=0;" parent="4A71q6UhintkqL5cM5Lv-112" edge="1">
          <mxGeometry width="50" height="50" relative="1" as="geometry">
            <mxPoint x="5" y="2.8421709430403966e-14" as="sourcePoint" />
            <mxPoint y="20" as="targetPoint" />
            <Array as="points" />
          </mxGeometry>
        </mxCell>
        <mxCell id="4A71q6UhintkqL5cM5Lv-116" value="&lt;div style=&quot;&quot;&gt;&lt;span style=&quot;font-size: 10px;&quot;&gt;4&lt;/span&gt;&lt;/div&gt;" style="text;html=1;align=center;verticalAlign=top;resizable=0;points=[];autosize=1;strokeColor=none;fillColor=none;horizontal=1;" parent="1" vertex="1">
          <mxGeometry x="799.5" y="195" width="25" height="30" as="geometry" />
        </mxCell>
        <mxCell id="4A71q6UhintkqL5cM5Lv-117" value="" style="endArrow=none;html=1;rounded=0;" parent="1" edge="1">
          <mxGeometry width="50" height="50" relative="1" as="geometry">
            <mxPoint x="825" y="200" as="sourcePoint" />
            <mxPoint x="840" y="200" as="targetPoint" />
          </mxGeometry>
        </mxCell>
        <mxCell id="4A71q6UhintkqL5cM5Lv-118" value="" style="endArrow=none;html=1;rounded=0;" parent="1" edge="1">
          <mxGeometry width="50" height="50" relative="1" as="geometry">
            <mxPoint x="825" y="220" as="sourcePoint" />
            <mxPoint x="840" y="220" as="targetPoint" />
          </mxGeometry>
        </mxCell>
        <mxCell id="4A71q6UhintkqL5cM5Lv-119" value="" style="group" parent="1" connectable="0" vertex="1">
          <mxGeometry x="840" y="200" width="5" height="20" as="geometry" />
        </mxCell>
        <mxCell id="4A71q6UhintkqL5cM5Lv-120" value="" style="endArrow=none;html=1;rounded=0;" parent="4A71q6UhintkqL5cM5Lv-119" edge="1">
          <mxGeometry width="50" height="50" relative="1" as="geometry">
            <mxPoint as="sourcePoint" />
            <mxPoint x="5" y="19.99999999999997" as="targetPoint" />
            <Array as="points" />
          </mxGeometry>
        </mxCell>
        <mxCell id="4A71q6UhintkqL5cM5Lv-121" value="" style="endArrow=none;html=1;rounded=0;" parent="4A71q6UhintkqL5cM5Lv-119" edge="1">
          <mxGeometry width="50" height="50" relative="1" as="geometry">
            <mxPoint x="5" y="2.8421709430403966e-14" as="sourcePoint" />
            <mxPoint y="20" as="targetPoint" />
            <Array as="points" />
          </mxGeometry>
        </mxCell>
        <mxCell id="4A71q6UhintkqL5cM5Lv-122" value="" style="endArrow=none;html=1;rounded=0;" parent="1" edge="1">
          <mxGeometry width="50" height="50" relative="1" as="geometry">
            <mxPoint x="845" y="200" as="sourcePoint" />
            <mxPoint x="860" y="200" as="targetPoint" />
          </mxGeometry>
        </mxCell>
        <mxCell id="4A71q6UhintkqL5cM5Lv-123" value="" style="endArrow=none;html=1;rounded=0;" parent="1" edge="1">
          <mxGeometry width="50" height="50" relative="1" as="geometry">
            <mxPoint x="845" y="220" as="sourcePoint" />
            <mxPoint x="860" y="220" as="targetPoint" />
          </mxGeometry>
        </mxCell>
        <mxCell id="4A71q6UhintkqL5cM5Lv-124" value="&lt;div style=&quot;&quot;&gt;&lt;span style=&quot;font-size: 10px;&quot;&gt;1&lt;/span&gt;&lt;/div&gt;" style="text;html=1;align=center;verticalAlign=top;resizable=0;points=[];autosize=1;strokeColor=none;fillColor=none;horizontal=1;" parent="1" vertex="1">
          <mxGeometry x="819.5" y="195" width="25" height="30" as="geometry" />
        </mxCell>
        <mxCell id="4A71q6UhintkqL5cM5Lv-125" value="" style="group" parent="1" connectable="0" vertex="1">
          <mxGeometry x="800" y="240" width="5" height="20" as="geometry" />
        </mxCell>
        <mxCell id="4A71q6UhintkqL5cM5Lv-126" value="" style="endArrow=none;html=1;rounded=0;" parent="4A71q6UhintkqL5cM5Lv-125" edge="1">
          <mxGeometry width="50" height="50" relative="1" as="geometry">
            <mxPoint as="sourcePoint" />
            <mxPoint x="5" y="19.99999999999997" as="targetPoint" />
            <Array as="points" />
          </mxGeometry>
        </mxCell>
        <mxCell id="4A71q6UhintkqL5cM5Lv-127" value="" style="endArrow=none;html=1;rounded=0;" parent="4A71q6UhintkqL5cM5Lv-125" edge="1">
          <mxGeometry width="50" height="50" relative="1" as="geometry">
            <mxPoint x="5" y="2.8421709430403966e-14" as="sourcePoint" />
            <mxPoint y="20" as="targetPoint" />
            <Array as="points" />
          </mxGeometry>
        </mxCell>
        <mxCell id="4A71q6UhintkqL5cM5Lv-135" value="" style="endArrow=none;html=1;rounded=0;" parent="1" edge="1">
          <mxGeometry width="50" height="50" relative="1" as="geometry">
            <mxPoint x="775" y="240" as="sourcePoint" />
            <mxPoint x="800" y="240" as="targetPoint" />
          </mxGeometry>
        </mxCell>
        <mxCell id="4A71q6UhintkqL5cM5Lv-136" value="" style="endArrow=none;html=1;rounded=0;" parent="1" edge="1">
          <mxGeometry width="50" height="50" relative="1" as="geometry">
            <mxPoint x="775" y="260" as="sourcePoint" />
            <mxPoint x="800" y="260" as="targetPoint" />
          </mxGeometry>
        </mxCell>
        <mxCell id="4A71q6UhintkqL5cM5Lv-137" value="" style="endArrow=none;html=1;rounded=0;" parent="1" edge="1">
          <mxGeometry width="50" height="50" relative="1" as="geometry">
            <mxPoint x="805" y="240" as="sourcePoint" />
            <mxPoint x="820" y="240" as="targetPoint" />
          </mxGeometry>
        </mxCell>
        <mxCell id="4A71q6UhintkqL5cM5Lv-138" value="" style="endArrow=none;html=1;rounded=0;" parent="1" edge="1">
          <mxGeometry width="50" height="50" relative="1" as="geometry">
            <mxPoint x="805" y="260" as="sourcePoint" />
            <mxPoint x="820" y="260" as="targetPoint" />
          </mxGeometry>
        </mxCell>
        <mxCell id="4A71q6UhintkqL5cM5Lv-139" value="&lt;div style=&quot;&quot;&gt;&lt;span style=&quot;font-size: 10px; background-color: initial;&quot;&gt;3&lt;/span&gt;&lt;/div&gt;" style="text;html=1;align=center;verticalAlign=top;resizable=0;points=[];autosize=1;strokeColor=none;fillColor=none;horizontal=1;" parent="1" vertex="1">
          <mxGeometry x="775" y="235" width="25" height="30" as="geometry" />
        </mxCell>
        <mxCell id="4A71q6UhintkqL5cM5Lv-140" value="" style="group" parent="1" connectable="0" vertex="1">
          <mxGeometry x="820" y="240" width="5" height="20" as="geometry" />
        </mxCell>
        <mxCell id="4A71q6UhintkqL5cM5Lv-141" value="" style="endArrow=none;html=1;rounded=0;" parent="4A71q6UhintkqL5cM5Lv-140" edge="1">
          <mxGeometry width="50" height="50" relative="1" as="geometry">
            <mxPoint as="sourcePoint" />
            <mxPoint x="5" y="19.99999999999997" as="targetPoint" />
            <Array as="points" />
          </mxGeometry>
        </mxCell>
        <mxCell id="4A71q6UhintkqL5cM5Lv-142" value="" style="endArrow=none;html=1;rounded=0;" parent="4A71q6UhintkqL5cM5Lv-140" edge="1">
          <mxGeometry width="50" height="50" relative="1" as="geometry">
            <mxPoint x="5" y="2.8421709430403966e-14" as="sourcePoint" />
            <mxPoint y="20" as="targetPoint" />
            <Array as="points" />
          </mxGeometry>
        </mxCell>
        <mxCell id="4A71q6UhintkqL5cM5Lv-143" value="&lt;div style=&quot;&quot;&gt;&lt;span style=&quot;font-size: 10px;&quot;&gt;5&lt;/span&gt;&lt;/div&gt;" style="text;html=1;align=center;verticalAlign=top;resizable=0;points=[];autosize=1;strokeColor=none;fillColor=none;horizontal=1;" parent="1" vertex="1">
          <mxGeometry x="799.5" y="235" width="25" height="30" as="geometry" />
        </mxCell>
        <mxCell id="4A71q6UhintkqL5cM5Lv-144" value="" style="endArrow=none;html=1;rounded=0;" parent="1" edge="1">
          <mxGeometry width="50" height="50" relative="1" as="geometry">
            <mxPoint x="825" y="240" as="sourcePoint" />
            <mxPoint x="840" y="240" as="targetPoint" />
          </mxGeometry>
        </mxCell>
        <mxCell id="4A71q6UhintkqL5cM5Lv-145" value="" style="endArrow=none;html=1;rounded=0;" parent="1" edge="1">
          <mxGeometry width="50" height="50" relative="1" as="geometry">
            <mxPoint x="825" y="260" as="sourcePoint" />
            <mxPoint x="840" y="260" as="targetPoint" />
          </mxGeometry>
        </mxCell>
        <mxCell id="4A71q6UhintkqL5cM5Lv-146" value="" style="group" parent="1" connectable="0" vertex="1">
          <mxGeometry x="840" y="240" width="5" height="20" as="geometry" />
        </mxCell>
        <mxCell id="4A71q6UhintkqL5cM5Lv-147" value="" style="endArrow=none;html=1;rounded=0;" parent="4A71q6UhintkqL5cM5Lv-146" edge="1">
          <mxGeometry width="50" height="50" relative="1" as="geometry">
            <mxPoint as="sourcePoint" />
            <mxPoint x="5" y="19.99999999999997" as="targetPoint" />
            <Array as="points" />
          </mxGeometry>
        </mxCell>
        <mxCell id="4A71q6UhintkqL5cM5Lv-148" value="" style="endArrow=none;html=1;rounded=0;" parent="4A71q6UhintkqL5cM5Lv-146" edge="1">
          <mxGeometry width="50" height="50" relative="1" as="geometry">
            <mxPoint x="5" y="2.8421709430403966e-14" as="sourcePoint" />
            <mxPoint y="20" as="targetPoint" />
            <Array as="points" />
          </mxGeometry>
        </mxCell>
        <mxCell id="4A71q6UhintkqL5cM5Lv-149" value="" style="endArrow=none;html=1;rounded=0;" parent="1" edge="1">
          <mxGeometry width="50" height="50" relative="1" as="geometry">
            <mxPoint x="845" y="240" as="sourcePoint" />
            <mxPoint x="860" y="240" as="targetPoint" />
          </mxGeometry>
        </mxCell>
        <mxCell id="4A71q6UhintkqL5cM5Lv-150" value="" style="endArrow=none;html=1;rounded=0;" parent="1" edge="1">
          <mxGeometry width="50" height="50" relative="1" as="geometry">
            <mxPoint x="845" y="260" as="sourcePoint" />
            <mxPoint x="860" y="260" as="targetPoint" />
          </mxGeometry>
        </mxCell>
        <mxCell id="4A71q6UhintkqL5cM5Lv-151" value="&lt;div style=&quot;&quot;&gt;&lt;span style=&quot;font-size: 10px;&quot;&gt;7&lt;/span&gt;&lt;/div&gt;" style="text;html=1;align=center;verticalAlign=top;resizable=0;points=[];autosize=1;strokeColor=none;fillColor=none;horizontal=1;" parent="1" vertex="1">
          <mxGeometry x="819.5" y="235" width="25" height="30" as="geometry" />
        </mxCell>
        <mxCell id="4A71q6UhintkqL5cM5Lv-170" value="" style="group" parent="1" connectable="0" vertex="1">
          <mxGeometry x="800" y="280" width="5" height="20" as="geometry" />
        </mxCell>
        <mxCell id="4A71q6UhintkqL5cM5Lv-171" value="" style="endArrow=none;html=1;rounded=0;" parent="4A71q6UhintkqL5cM5Lv-170" edge="1">
          <mxGeometry width="50" height="50" relative="1" as="geometry">
            <mxPoint as="sourcePoint" />
            <mxPoint x="5" y="19.99999999999997" as="targetPoint" />
            <Array as="points" />
          </mxGeometry>
        </mxCell>
        <mxCell id="4A71q6UhintkqL5cM5Lv-172" value="" style="endArrow=none;html=1;rounded=0;" parent="4A71q6UhintkqL5cM5Lv-170" edge="1">
          <mxGeometry width="50" height="50" relative="1" as="geometry">
            <mxPoint x="5" y="2.8421709430403966e-14" as="sourcePoint" />
            <mxPoint y="20" as="targetPoint" />
            <Array as="points" />
          </mxGeometry>
        </mxCell>
        <mxCell id="4A71q6UhintkqL5cM5Lv-173" value="" style="endArrow=none;html=1;rounded=0;" parent="1" edge="1">
          <mxGeometry width="50" height="50" relative="1" as="geometry">
            <mxPoint x="805" y="280" as="sourcePoint" />
            <mxPoint x="820" y="280" as="targetPoint" />
          </mxGeometry>
        </mxCell>
        <mxCell id="4A71q6UhintkqL5cM5Lv-174" value="" style="endArrow=none;html=1;rounded=0;" parent="1" edge="1">
          <mxGeometry width="50" height="50" relative="1" as="geometry">
            <mxPoint x="805" y="300" as="sourcePoint" />
            <mxPoint x="820" y="300" as="targetPoint" />
          </mxGeometry>
        </mxCell>
        <mxCell id="4A71q6UhintkqL5cM5Lv-175" value="&lt;div style=&quot;&quot;&gt;&lt;span style=&quot;font-size: 10px; background-color: initial;&quot;&gt;6&lt;/span&gt;&lt;/div&gt;" style="text;html=1;align=center;verticalAlign=top;resizable=0;points=[];autosize=1;strokeColor=none;fillColor=none;horizontal=1;" parent="1" vertex="1">
          <mxGeometry x="800" y="275" width="25" height="30" as="geometry" />
        </mxCell>
        <mxCell id="4A71q6UhintkqL5cM5Lv-176" value="" style="group" parent="1" connectable="0" vertex="1">
          <mxGeometry x="820" y="280" width="5" height="20" as="geometry" />
        </mxCell>
        <mxCell id="4A71q6UhintkqL5cM5Lv-177" value="" style="endArrow=none;html=1;rounded=0;" parent="4A71q6UhintkqL5cM5Lv-176" edge="1">
          <mxGeometry width="50" height="50" relative="1" as="geometry">
            <mxPoint as="sourcePoint" />
            <mxPoint x="5" y="19.99999999999997" as="targetPoint" />
            <Array as="points" />
          </mxGeometry>
        </mxCell>
        <mxCell id="4A71q6UhintkqL5cM5Lv-178" value="" style="endArrow=none;html=1;rounded=0;" parent="4A71q6UhintkqL5cM5Lv-176" edge="1">
          <mxGeometry width="50" height="50" relative="1" as="geometry">
            <mxPoint x="5" y="2.8421709430403966e-14" as="sourcePoint" />
            <mxPoint y="20" as="targetPoint" />
            <Array as="points" />
          </mxGeometry>
        </mxCell>
        <mxCell id="4A71q6UhintkqL5cM5Lv-179" value="&lt;div style=&quot;&quot;&gt;&lt;span style=&quot;font-size: 10px;&quot;&gt;20&lt;/span&gt;&lt;/div&gt;" style="text;html=1;align=center;verticalAlign=top;resizable=0;points=[];autosize=1;strokeColor=none;fillColor=none;horizontal=1;" parent="1" vertex="1">
          <mxGeometry x="817" y="275" width="30" height="30" as="geometry" />
        </mxCell>
        <mxCell id="4A71q6UhintkqL5cM5Lv-180" value="" style="endArrow=none;html=1;rounded=0;" parent="1" edge="1">
          <mxGeometry width="50" height="50" relative="1" as="geometry">
            <mxPoint x="825" y="280" as="sourcePoint" />
            <mxPoint x="840" y="280" as="targetPoint" />
          </mxGeometry>
        </mxCell>
        <mxCell id="4A71q6UhintkqL5cM5Lv-181" value="" style="endArrow=none;html=1;rounded=0;" parent="1" edge="1">
          <mxGeometry width="50" height="50" relative="1" as="geometry">
            <mxPoint x="825" y="300" as="sourcePoint" />
            <mxPoint x="840" y="300" as="targetPoint" />
          </mxGeometry>
        </mxCell>
        <mxCell id="4A71q6UhintkqL5cM5Lv-182" value="" style="group" parent="1" connectable="0" vertex="1">
          <mxGeometry x="840" y="280" width="5" height="20" as="geometry" />
        </mxCell>
        <mxCell id="4A71q6UhintkqL5cM5Lv-183" value="" style="endArrow=none;html=1;rounded=0;" parent="4A71q6UhintkqL5cM5Lv-182" edge="1">
          <mxGeometry width="50" height="50" relative="1" as="geometry">
            <mxPoint as="sourcePoint" />
            <mxPoint x="5" y="19.99999999999997" as="targetPoint" />
            <Array as="points" />
          </mxGeometry>
        </mxCell>
        <mxCell id="4A71q6UhintkqL5cM5Lv-184" value="" style="endArrow=none;html=1;rounded=0;" parent="4A71q6UhintkqL5cM5Lv-182" edge="1">
          <mxGeometry width="50" height="50" relative="1" as="geometry">
            <mxPoint x="5" y="2.8421709430403966e-14" as="sourcePoint" />
            <mxPoint y="20" as="targetPoint" />
            <Array as="points" />
          </mxGeometry>
        </mxCell>
        <mxCell id="4A71q6UhintkqL5cM5Lv-185" value="" style="endArrow=none;html=1;rounded=0;" parent="1" edge="1">
          <mxGeometry width="50" height="50" relative="1" as="geometry">
            <mxPoint x="845" y="280" as="sourcePoint" />
            <mxPoint x="860" y="280" as="targetPoint" />
          </mxGeometry>
        </mxCell>
        <mxCell id="4A71q6UhintkqL5cM5Lv-186" value="" style="endArrow=none;html=1;rounded=0;" parent="1" edge="1">
          <mxGeometry width="50" height="50" relative="1" as="geometry">
            <mxPoint x="845" y="300" as="sourcePoint" />
            <mxPoint x="860" y="300" as="targetPoint" />
          </mxGeometry>
        </mxCell>
        <mxCell id="4A71q6UhintkqL5cM5Lv-187" value="&lt;div style=&quot;&quot;&gt;&lt;span style=&quot;font-size: 10px;&quot;&gt;13&lt;/span&gt;&lt;/div&gt;" style="text;html=1;align=center;verticalAlign=top;resizable=0;points=[];autosize=1;strokeColor=none;fillColor=none;horizontal=1;" parent="1" vertex="1">
          <mxGeometry x="837" y="275" width="30" height="30" as="geometry" />
        </mxCell>
        <mxCell id="4A71q6UhintkqL5cM5Lv-188" value="" style="group" parent="1" connectable="0" vertex="1">
          <mxGeometry x="860" y="200" width="5" height="20" as="geometry" />
        </mxCell>
        <mxCell id="4A71q6UhintkqL5cM5Lv-189" value="" style="endArrow=none;html=1;rounded=0;" parent="4A71q6UhintkqL5cM5Lv-188" edge="1">
          <mxGeometry width="50" height="50" relative="1" as="geometry">
            <mxPoint as="sourcePoint" />
            <mxPoint x="5" y="19.99999999999997" as="targetPoint" />
            <Array as="points" />
          </mxGeometry>
        </mxCell>
        <mxCell id="4A71q6UhintkqL5cM5Lv-190" value="" style="endArrow=none;html=1;rounded=0;" parent="4A71q6UhintkqL5cM5Lv-188" edge="1">
          <mxGeometry width="50" height="50" relative="1" as="geometry">
            <mxPoint x="5" y="2.8421709430403966e-14" as="sourcePoint" />
            <mxPoint y="20" as="targetPoint" />
            <Array as="points" />
          </mxGeometry>
        </mxCell>
        <mxCell id="4A71q6UhintkqL5cM5Lv-191" value="" style="endArrow=none;html=1;rounded=0;" parent="1" edge="1">
          <mxGeometry width="50" height="50" relative="1" as="geometry">
            <mxPoint x="865" y="200" as="sourcePoint" />
            <mxPoint x="880" y="200" as="targetPoint" />
          </mxGeometry>
        </mxCell>
        <mxCell id="4A71q6UhintkqL5cM5Lv-192" value="" style="endArrow=none;html=1;rounded=0;" parent="1" edge="1">
          <mxGeometry width="50" height="50" relative="1" as="geometry">
            <mxPoint x="865" y="220" as="sourcePoint" />
            <mxPoint x="880" y="220" as="targetPoint" />
          </mxGeometry>
        </mxCell>
        <mxCell id="4A71q6UhintkqL5cM5Lv-193" value="&lt;div style=&quot;&quot;&gt;&lt;span style=&quot;font-size: 10px;&quot;&gt;3&lt;/span&gt;&lt;/div&gt;" style="text;html=1;align=center;verticalAlign=top;resizable=0;points=[];autosize=1;strokeColor=none;fillColor=none;horizontal=1;" parent="1" vertex="1">
          <mxGeometry x="839.5" y="195" width="25" height="30" as="geometry" />
        </mxCell>
        <mxCell id="4A71q6UhintkqL5cM5Lv-194" value="" style="group" parent="1" connectable="0" vertex="1">
          <mxGeometry x="860" y="240" width="5" height="20" as="geometry" />
        </mxCell>
        <mxCell id="4A71q6UhintkqL5cM5Lv-195" value="" style="endArrow=none;html=1;rounded=0;" parent="4A71q6UhintkqL5cM5Lv-194" edge="1">
          <mxGeometry width="50" height="50" relative="1" as="geometry">
            <mxPoint as="sourcePoint" />
            <mxPoint x="5" y="19.99999999999997" as="targetPoint" />
            <Array as="points" />
          </mxGeometry>
        </mxCell>
        <mxCell id="4A71q6UhintkqL5cM5Lv-196" value="" style="endArrow=none;html=1;rounded=0;" parent="4A71q6UhintkqL5cM5Lv-194" edge="1">
          <mxGeometry width="50" height="50" relative="1" as="geometry">
            <mxPoint x="5" y="2.8421709430403966e-14" as="sourcePoint" />
            <mxPoint y="20" as="targetPoint" />
            <Array as="points" />
          </mxGeometry>
        </mxCell>
        <mxCell id="4A71q6UhintkqL5cM5Lv-197" value="" style="endArrow=none;html=1;rounded=0;" parent="1" edge="1">
          <mxGeometry width="50" height="50" relative="1" as="geometry">
            <mxPoint x="865" y="240" as="sourcePoint" />
            <mxPoint x="880" y="240" as="targetPoint" />
          </mxGeometry>
        </mxCell>
        <mxCell id="4A71q6UhintkqL5cM5Lv-198" value="" style="endArrow=none;html=1;rounded=0;" parent="1" edge="1">
          <mxGeometry width="50" height="50" relative="1" as="geometry">
            <mxPoint x="865" y="260" as="sourcePoint" />
            <mxPoint x="880" y="260" as="targetPoint" />
          </mxGeometry>
        </mxCell>
        <mxCell id="4A71q6UhintkqL5cM5Lv-199" value="&lt;div style=&quot;&quot;&gt;&lt;span style=&quot;font-size: 10px;&quot;&gt;4&lt;/span&gt;&lt;/div&gt;" style="text;html=1;align=center;verticalAlign=top;resizable=0;points=[];autosize=1;strokeColor=none;fillColor=none;horizontal=1;" parent="1" vertex="1">
          <mxGeometry x="839.5" y="235" width="25" height="30" as="geometry" />
        </mxCell>
        <mxCell id="4A71q6UhintkqL5cM5Lv-200" value="" style="group" parent="1" connectable="0" vertex="1">
          <mxGeometry x="859.5" y="280" width="5" height="20" as="geometry" />
        </mxCell>
        <mxCell id="4A71q6UhintkqL5cM5Lv-201" value="" style="endArrow=none;html=1;rounded=0;" parent="4A71q6UhintkqL5cM5Lv-200" edge="1">
          <mxGeometry width="50" height="50" relative="1" as="geometry">
            <mxPoint as="sourcePoint" />
            <mxPoint x="5" y="19.99999999999997" as="targetPoint" />
            <Array as="points" />
          </mxGeometry>
        </mxCell>
        <mxCell id="4A71q6UhintkqL5cM5Lv-202" value="" style="endArrow=none;html=1;rounded=0;" parent="4A71q6UhintkqL5cM5Lv-200" edge="1">
          <mxGeometry width="50" height="50" relative="1" as="geometry">
            <mxPoint x="5" y="2.8421709430403966e-14" as="sourcePoint" />
            <mxPoint y="20" as="targetPoint" />
            <Array as="points" />
          </mxGeometry>
        </mxCell>
        <mxCell id="4A71q6UhintkqL5cM5Lv-203" value="" style="endArrow=none;html=1;rounded=0;" parent="1" edge="1">
          <mxGeometry width="50" height="50" relative="1" as="geometry">
            <mxPoint x="864.5" y="280" as="sourcePoint" />
            <mxPoint x="879.5" y="280" as="targetPoint" />
          </mxGeometry>
        </mxCell>
        <mxCell id="4A71q6UhintkqL5cM5Lv-204" value="" style="endArrow=none;html=1;rounded=0;" parent="1" edge="1">
          <mxGeometry width="50" height="50" relative="1" as="geometry">
            <mxPoint x="864.5" y="300" as="sourcePoint" />
            <mxPoint x="879.5" y="300" as="targetPoint" />
          </mxGeometry>
        </mxCell>
        <mxCell id="4A71q6UhintkqL5cM5Lv-205" value="&lt;div style=&quot;&quot;&gt;&lt;span style=&quot;font-size: 10px;&quot;&gt;32&lt;/span&gt;&lt;/div&gt;" style="text;html=1;align=center;verticalAlign=top;resizable=0;points=[];autosize=1;strokeColor=none;fillColor=none;horizontal=1;" parent="1" vertex="1">
          <mxGeometry x="857.5" y="275" width="30" height="30" as="geometry" />
        </mxCell>
        <mxCell id="4A71q6UhintkqL5cM5Lv-212" value="MAC" style="text;html=1;align=center;verticalAlign=middle;resizable=0;points=[];autosize=1;strokeColor=none;fillColor=none;" parent="1" vertex="1">
          <mxGeometry x="720" y="315" width="50" height="30" as="geometry" />
        </mxCell>
        <mxCell id="4A71q6UhintkqL5cM5Lv-213" value="&lt;font style=&quot;font-size: 10px;&quot;&gt;0&lt;/font&gt;" style="text;html=1;align=center;verticalAlign=middle;resizable=0;points=[];autosize=1;strokeColor=none;fillColor=none;" parent="1" vertex="1">
          <mxGeometry x="775" y="315" width="25" height="30" as="geometry" />
        </mxCell>
        <mxCell id="4A71q6UhintkqL5cM5Lv-214" value="" style="endArrow=none;html=1;rounded=0;" parent="1" edge="1">
          <mxGeometry width="50" height="50" relative="1" as="geometry">
            <mxPoint x="775" y="320" as="sourcePoint" />
            <mxPoint x="800" y="320" as="targetPoint" />
          </mxGeometry>
        </mxCell>
        <mxCell id="4A71q6UhintkqL5cM5Lv-215" value="" style="endArrow=none;html=1;rounded=0;" parent="1" edge="1">
          <mxGeometry width="50" height="50" relative="1" as="geometry">
            <mxPoint x="775" y="340" as="sourcePoint" />
            <mxPoint x="800" y="340" as="targetPoint" />
          </mxGeometry>
        </mxCell>
        <mxCell id="4A71q6UhintkqL5cM5Lv-216" value="" style="group" parent="1" connectable="0" vertex="1">
          <mxGeometry x="800" y="320" width="5" height="20" as="geometry" />
        </mxCell>
        <mxCell id="4A71q6UhintkqL5cM5Lv-217" value="" style="endArrow=none;html=1;rounded=0;" parent="4A71q6UhintkqL5cM5Lv-216" edge="1">
          <mxGeometry width="50" height="50" relative="1" as="geometry">
            <mxPoint as="sourcePoint" />
            <mxPoint x="5" y="19.99999999999997" as="targetPoint" />
            <Array as="points" />
          </mxGeometry>
        </mxCell>
        <mxCell id="4A71q6UhintkqL5cM5Lv-218" value="" style="endArrow=none;html=1;rounded=0;" parent="4A71q6UhintkqL5cM5Lv-216" edge="1">
          <mxGeometry width="50" height="50" relative="1" as="geometry">
            <mxPoint x="5" y="2.8421709430403966e-14" as="sourcePoint" />
            <mxPoint y="20" as="targetPoint" />
            <Array as="points" />
          </mxGeometry>
        </mxCell>
        <mxCell id="4A71q6UhintkqL5cM5Lv-219" value="" style="endArrow=none;html=1;rounded=0;" parent="1" edge="1">
          <mxGeometry width="50" height="50" relative="1" as="geometry">
            <mxPoint x="805" y="320" as="sourcePoint" />
            <mxPoint x="820" y="320" as="targetPoint" />
          </mxGeometry>
        </mxCell>
        <mxCell id="4A71q6UhintkqL5cM5Lv-220" value="" style="endArrow=none;html=1;rounded=0;" parent="1" edge="1">
          <mxGeometry width="50" height="50" relative="1" as="geometry">
            <mxPoint x="805" y="340" as="sourcePoint" />
            <mxPoint x="820" y="340" as="targetPoint" />
          </mxGeometry>
        </mxCell>
        <mxCell id="4A71q6UhintkqL5cM5Lv-221" value="&lt;div style=&quot;&quot;&gt;&lt;span style=&quot;font-size: 10px; background-color: initial;&quot;&gt;6&lt;/span&gt;&lt;/div&gt;" style="text;html=1;align=center;verticalAlign=top;resizable=0;points=[];autosize=1;strokeColor=none;fillColor=none;horizontal=1;" parent="1" vertex="1">
          <mxGeometry x="800" y="315" width="25" height="30" as="geometry" />
        </mxCell>
        <mxCell id="4A71q6UhintkqL5cM5Lv-222" value="" style="group" parent="1" connectable="0" vertex="1">
          <mxGeometry x="820" y="320" width="5" height="20" as="geometry" />
        </mxCell>
        <mxCell id="4A71q6UhintkqL5cM5Lv-223" value="" style="endArrow=none;html=1;rounded=0;" parent="4A71q6UhintkqL5cM5Lv-222" edge="1">
          <mxGeometry width="50" height="50" relative="1" as="geometry">
            <mxPoint as="sourcePoint" />
            <mxPoint x="5" y="19.99999999999997" as="targetPoint" />
            <Array as="points" />
          </mxGeometry>
        </mxCell>
        <mxCell id="4A71q6UhintkqL5cM5Lv-224" value="" style="endArrow=none;html=1;rounded=0;" parent="4A71q6UhintkqL5cM5Lv-222" edge="1">
          <mxGeometry width="50" height="50" relative="1" as="geometry">
            <mxPoint x="5" y="2.8421709430403966e-14" as="sourcePoint" />
            <mxPoint y="20" as="targetPoint" />
            <Array as="points" />
          </mxGeometry>
        </mxCell>
        <mxCell id="4A71q6UhintkqL5cM5Lv-225" value="&lt;div style=&quot;&quot;&gt;&lt;span style=&quot;font-size: 10px;&quot;&gt;26&lt;/span&gt;&lt;/div&gt;" style="text;html=1;align=center;verticalAlign=top;resizable=0;points=[];autosize=1;strokeColor=none;fillColor=none;horizontal=1;" parent="1" vertex="1">
          <mxGeometry x="817" y="315" width="30" height="30" as="geometry" />
        </mxCell>
        <mxCell id="4A71q6UhintkqL5cM5Lv-226" value="" style="endArrow=none;html=1;rounded=0;" parent="1" edge="1">
          <mxGeometry width="50" height="50" relative="1" as="geometry">
            <mxPoint x="825" y="320" as="sourcePoint" />
            <mxPoint x="840" y="320" as="targetPoint" />
          </mxGeometry>
        </mxCell>
        <mxCell id="4A71q6UhintkqL5cM5Lv-227" value="" style="endArrow=none;html=1;rounded=0;" parent="1" edge="1">
          <mxGeometry width="50" height="50" relative="1" as="geometry">
            <mxPoint x="825" y="340" as="sourcePoint" />
            <mxPoint x="840" y="340" as="targetPoint" />
          </mxGeometry>
        </mxCell>
        <mxCell id="4A71q6UhintkqL5cM5Lv-228" value="" style="group" parent="1" connectable="0" vertex="1">
          <mxGeometry x="840" y="320" width="5" height="20" as="geometry" />
        </mxCell>
        <mxCell id="4A71q6UhintkqL5cM5Lv-229" value="" style="endArrow=none;html=1;rounded=0;" parent="4A71q6UhintkqL5cM5Lv-228" edge="1">
          <mxGeometry width="50" height="50" relative="1" as="geometry">
            <mxPoint as="sourcePoint" />
            <mxPoint x="5" y="19.99999999999997" as="targetPoint" />
            <Array as="points" />
          </mxGeometry>
        </mxCell>
        <mxCell id="4A71q6UhintkqL5cM5Lv-230" value="" style="endArrow=none;html=1;rounded=0;" parent="4A71q6UhintkqL5cM5Lv-228" edge="1">
          <mxGeometry width="50" height="50" relative="1" as="geometry">
            <mxPoint x="5" y="2.8421709430403966e-14" as="sourcePoint" />
            <mxPoint y="20" as="targetPoint" />
            <Array as="points" />
          </mxGeometry>
        </mxCell>
        <mxCell id="4A71q6UhintkqL5cM5Lv-231" value="" style="endArrow=none;html=1;rounded=0;" parent="1" edge="1">
          <mxGeometry width="50" height="50" relative="1" as="geometry">
            <mxPoint x="845" y="320" as="sourcePoint" />
            <mxPoint x="860" y="320" as="targetPoint" />
          </mxGeometry>
        </mxCell>
        <mxCell id="4A71q6UhintkqL5cM5Lv-232" value="" style="endArrow=none;html=1;rounded=0;" parent="1" edge="1">
          <mxGeometry width="50" height="50" relative="1" as="geometry">
            <mxPoint x="845" y="340" as="sourcePoint" />
            <mxPoint x="860" y="340" as="targetPoint" />
          </mxGeometry>
        </mxCell>
        <mxCell id="4A71q6UhintkqL5cM5Lv-233" value="&lt;div style=&quot;&quot;&gt;&lt;span style=&quot;font-size: 10px;&quot;&gt;33&lt;/span&gt;&lt;/div&gt;" style="text;html=1;align=center;verticalAlign=top;resizable=0;points=[];autosize=1;strokeColor=none;fillColor=none;horizontal=1;" parent="1" vertex="1">
          <mxGeometry x="837" y="315" width="30" height="30" as="geometry" />
        </mxCell>
        <mxCell id="4A71q6UhintkqL5cM5Lv-234" value="" style="group" parent="1" connectable="0" vertex="1">
          <mxGeometry x="859.5" y="320" width="5" height="20" as="geometry" />
        </mxCell>
        <mxCell id="4A71q6UhintkqL5cM5Lv-235" value="" style="endArrow=none;html=1;rounded=0;" parent="4A71q6UhintkqL5cM5Lv-234" edge="1">
          <mxGeometry width="50" height="50" relative="1" as="geometry">
            <mxPoint as="sourcePoint" />
            <mxPoint x="5" y="19.99999999999997" as="targetPoint" />
            <Array as="points" />
          </mxGeometry>
        </mxCell>
        <mxCell id="4A71q6UhintkqL5cM5Lv-236" value="" style="endArrow=none;html=1;rounded=0;" parent="4A71q6UhintkqL5cM5Lv-234" edge="1">
          <mxGeometry width="50" height="50" relative="1" as="geometry">
            <mxPoint x="5" y="2.8421709430403966e-14" as="sourcePoint" />
            <mxPoint y="20" as="targetPoint" />
            <Array as="points" />
          </mxGeometry>
        </mxCell>
        <mxCell id="4A71q6UhintkqL5cM5Lv-237" value="" style="endArrow=none;html=1;rounded=0;" parent="1" edge="1">
          <mxGeometry width="50" height="50" relative="1" as="geometry">
            <mxPoint x="864.5" y="320" as="sourcePoint" />
            <mxPoint x="879.5" y="320" as="targetPoint" />
          </mxGeometry>
        </mxCell>
        <mxCell id="4A71q6UhintkqL5cM5Lv-238" value="" style="endArrow=none;html=1;rounded=0;" parent="1" edge="1">
          <mxGeometry width="50" height="50" relative="1" as="geometry">
            <mxPoint x="864.5" y="340" as="sourcePoint" />
            <mxPoint x="879.5" y="340" as="targetPoint" />
          </mxGeometry>
        </mxCell>
        <mxCell id="4A71q6UhintkqL5cM5Lv-239" value="&lt;div style=&quot;&quot;&gt;&lt;span style=&quot;font-size: 10px;&quot;&gt;45&lt;/span&gt;&lt;/div&gt;" style="text;html=1;align=center;verticalAlign=top;resizable=0;points=[];autosize=1;strokeColor=none;fillColor=none;horizontal=1;" parent="1" vertex="1">
          <mxGeometry x="857.5" y="315" width="30" height="30" as="geometry" />
        </mxCell>
        <mxCell id="edqAift9cB1q6xz6t763-1" value="A" style="text;html=1;strokeColor=none;fillColor=none;align=center;verticalAlign=middle;whiteSpace=wrap;rounded=0;" vertex="1" parent="1">
          <mxGeometry x="505" y="50" width="20" height="15" as="geometry" />
        </mxCell>
        <mxCell id="edqAift9cB1q6xz6t763-2" value="B" style="text;html=1;strokeColor=none;fillColor=none;align=center;verticalAlign=middle;whiteSpace=wrap;rounded=0;" vertex="1" parent="1">
          <mxGeometry x="505" y="90" width="20" height="15" as="geometry" />
        </mxCell>
      </root>
    </mxGraphModel>
  </diagram>
</mxfile>
